inDegrees=no
num_controls=7
num_derivatives=13
num_iterations=157
num_multipliers=7
num_parameters=0
num_slacks=7
num_states=26
objective=0.477033
objective_accelerations=0.044214
objective_balance=0.003614
objective_effort=0.040373
objective_height=0.383169
objective_ligament=0.005662
solver_duration=2149.070580
status=Solve_Succeeded
success=true
DataType=double
version=3
OpenSimVersion=4.5
endheader
time	/jointset/ground_pelvis/pelvis_tilt/value	/jointset/ground_pelvis/pelvis_tx/value	/jointset/ground_pelvis/pelvis_ty/value	/jointset/hip_l/hip_flexion_l/value	/jointset/hip_l/hip_adduction_l/value	/jointset/hip_l/hip_rotation_l/value	/jointset/back/lumbar_extension/value	/jointset/patellofemoral_l/patellar_flexion_l/value	/jointset/knee_l/knee_flexion_l/value	/jointset/knee_l/knee_adduction_l/value	/jointset/knee_l/knee_rotation_l/value	/jointset/ankle_l/ankle_angle_l/value	/jointset/subtalar_l/subtalar_angle_l/value	/jointset/ground_pelvis/pelvis_tilt/speed	/jointset/ground_pelvis/pelvis_tx/speed	/jointset/ground_pelvis/pelvis_ty/speed	/jointset/hip_l/hip_flexion_l/speed	/jointset/hip_l/hip_adduction_l/speed	/jointset/hip_l/hip_rotation_l/speed	/jointset/back/lumbar_extension/speed	/jointset/patellofemoral_l/patellar_flexion_l/speed	/jointset/knee_l/knee_flexion_l/speed	/jointset/knee_l/knee_adduction_l/speed	/jointset/knee_l/knee_rotation_l/speed	/jointset/ankle_l/ankle_angle_l/speed	/jointset/subtalar_l/subtalar_angle_l/speed	/forceset/tau_hip_flexion_l	/forceset/tau_hip_adduction_l	/forceset/tau_hip_rotation_l	/forceset/tau_knee_flexion_l	/forceset/tau_ankle_angle_l	/forceset/tau_subtalar_angle_l	/forceset/tau_lumbar_extension	lambda_cid13_p0	lambda_cid13_p1	lambda_cid13_p2	lambda_cid13_p3	lambda_cid13_p4	lambda_cid13_p5	lambda_cid14_p0	/jointset/ground_pelvis/pelvis_tilt/accel	/jointset/ground_pelvis/pelvis_tx/accel	/jointset/ground_pelvis/pelvis_ty/accel	/jointset/hip_l/hip_flexion_l/accel	/jointset/hip_l/hip_adduction_l/accel	/jointset/hip_l/hip_rotation_l/accel	/jointset/back/lumbar_extension/accel	/jointset/patellofemoral_l/patellar_flexion_l/accel	/jointset/knee_l/knee_flexion_l/accel	/jointset/knee_l/knee_adduction_l/accel	/jointset/knee_l/knee_rotation_l/accel	/jointset/ankle_l/ankle_angle_l/accel	/jointset/subtalar_l/subtalar_angle_l/accel	gamma_cid13_p0	gamma_cid13_p1	gamma_cid13_p2	gamma_cid13_p3	gamma_cid13_p4	gamma_cid13_p5	gamma_cid14_p0
0.5	-0.09353955014583695	-0.04154359126147776	0.8069856606014003	0.9286765217931414	-0.3298349884327755	-0.07873859283746774	-0.7909763796161565	0.9207567126810973	0.9207567126808387	-0.1037470496851363	-0.1745318129701803	0.1496535962926162	0.01337354519414523	-0.124512685012583	-0.1568320593017839	-0.4146519417164009	1.589775827144301	-0.03052986233399986	0.5634909058056086	-0.8382552635923111	1.778656380490235	1.778656380490145	0.1482424338930854	-4.600878265491371e-06	0.4344976541081967	0.1148263136444755	-0.2707056409145249	0.01833696303653789	-0.004703979517607306	-0.2486494582428457	0.08564451657795079	0.0477347286336746	0.3276299364361667	-16.52108153863522	-19.56867683620644	4.641786182488447	-9.608474104351711	-701.9953180936915	-77.51286193406683	-9.777230504637632	0.2812153024852025	0.6784444864896504	-0.1875277723067144	-1.525573129135168	0.3307350126115471	-0.5098750799928743	1.915992621910321	-1.429952493464495	-1.429952493464492	-0.2203690104568747	-0.001857534939136237	-0.2547352764750424	0.3431737463008961	-2.539823996280656e-07	-1.656340242635496e-07	1.510336618892019e-06	1.404405954838109e-07	-2.805276057173677e-07	-1.014419761820037e-07	-2.163876856847309e-07
0.51	-0.09477043519530065	-0.04307796847950834	0.802830695175305	0.9444955999333571	-0.3301245773626022	-0.07312830790830351	-0.799262238786952	0.938468985522947	0.9384689855224795	-0.1022781977461843	-0.1745318383612533	0.1539847767450057	0.0145376791004723	-0.1216451711600606	-0.1500425444886275	-0.4162456506781346	1.573818944762417	-0.02739581996147768	0.558500297011989	-0.8188272872993655	1.763543216408601	1.763543216408555	0.1455239600403116	-8.433782192220456e-07	0.431667026934815	0.1179726078670642	-0.2769468384930448	0.01868199796195577	-0.004844291327282525	-0.2522388634289542	0.08449618433821605	0.04779661518849227	0.3339070637331193	-17.15235307957074	-19.4301041636095	4.556962592138957	-9.35912533887611	-706.5752491190522	-77.34954642674903	-9.055736618607257	0.2923689920147284	0.6793592242079163	-0.1310226946493441	-1.663905288202895	0.3033501684048869	-0.503718832911025	1.969592623111771	-1.590201802213407	-1.590201802206744	-0.2981807482784154	0.001732195458626927	-0.3079360951579427	0.2960249676793037	-2.441346928328437e-07	-1.558336313907314e-07	1.472810514516308e-06	1.365166143081866e-07	-2.662126458425562e-07	-7.128251185983093e-08	-2.112946070159945e-07
0.52	-0.0959720751931636	-0.04454441970031152	0.7986626466122838	0.9601484773506561	-0.3303831036049371	-0.06756994207784847	-0.8073511396967932	0.9560224860366401	0.9560224860359645	-0.1008366493808781	-0.1745317782167294	0.1582855089941839	0.01573240949051356	-0.1186636746923786	-0.1432468598563029	-0.4172685691015734	1.556535682561019	-0.02431732483566221	0.5531070860637883	-0.7988636114014147	1.746901914858944	1.746901914858942	0.1427817191639067	1.250624111179812e-05	0.4284080134659049	0.1209456103873104	-0.2831880360715644	0.01902703288737362	-0.004984603136956961	-0.2558282686150627	0.08334785209848131	0.0478585017433099	0.340184191030072	-17.78551025481405	-19.29147793720088	4.472447792483435	-9.154840873597783	-711.2171084451843	-77.23835252904441	-8.336300588202972	0.3040118255171066	0.6796784503232978	-0.0733696646477224	-1.790849093037898	0.3196255632702059	-0.5903955109090853	2.023132542911394	-1.735579987069155	-1.735579987069128	-0.2251224151830917	6.088891781512971e-05	-0.3404125355807234	0.3085154058323579	-2.386015837634565e-07	-1.933901904546382e-07	1.426489528238662e-06	1.267194734855282e-07	-2.569421117295697e-07	-5.628842347778383e-08	-2.110416559314225e-07
0.53	-0.09714335634616397	-0.04594293415071964	0.7944872362553005	0.9756220168838212	-0.3306111699019852	-0.06206763340921737	-0.8152379135269803	0.9734021109198205	0.9734021109196618	-0.09942255554009923	-0.1745317287163042	0.162551591003662	0.01695596118209089	-0.1155757757616157	-0.1364597162671693	-0.4177168968621743	1.53796152389627	-0.02130777880690891	0.5472931638989349	-0.778419718740382	1.728783261142405	1.728783261142331	0.1400323992672703	-3.186827754357054e-06	0.424745171737361	0.1237340498517989	-0.2890905143149279	0.01922147722339503	-0.005080482274824153	-0.2596053132289708	0.08235817659736641	0.04777486980635293	0.3461376964075278	-18.36784911644425	-19.09017935783737	4.368377631121371	-8.905697365172541	-715.7284460530163	-77.05382074625376	-7.623420863584932	0.3136739288779017	0.6777037216152898	-0.01612393138070438	-1.922333171356903	0.2896585475726622	-0.5863077258244063	2.065733012048933	-1.885935977397047	-1.885935977407905	-0.3005502988452864	-0.002193863339038488	-0.3887043044350715	0.2592761685698541	-2.289479355853639e-07	-1.924214330279402e-07	1.382499323354807e-06	1.213620782072664e-07	-2.440841342360838e-07	-3.111635719006446e-08	-2.061269696010958e-07
0.54	-0.09828325950945258	-0.04727368288355507	0.7903102307007884	0.9909034880467059	-0.3308095328537669	-0.05662534739354502	-0.822918105353687	0.9905933636831454	0.9905933636835029	-0.09803609760267513	-0.1745317980382777	0.166779147733266	0.01820645085867567	-0.1123880767499713	-0.1296937163417627	-0.4175876086073523	1.51812200850498	-0.0183766557823649	0.5411025554720446	-0.7575472107053597	1.709227490887836	1.70922749088769	0.1372545384929788	-1.125823862881324e-05	0.4207029574910633	0.1263332073887975	-0.2949929925582911	0.01941592155941658	-0.00517636141269207	-0.2633823578428789	0.08136850109625154	0.04769123786939616	0.3520912017849839	-18.9518353402365	-18.89149933650153	4.268046664504211	-8.705845513399058	-720.2935256762469	-76.92403461964746	-6.94019629194991	0.3239718416934102	0.6754497175778709	0.04215353843684125	-2.043920438346206	0.303940962428351	-0.665732763316447	2.108855617709311	-2.023003294675013	-2.023003294675048	-0.2308305907141304	0.001585220516156409	-0.4162870391314762	0.2706590203343772	-2.147353930742355e-07	-1.488289211861044e-07	1.34108785533217e-06	1.209167418291881e-07	-2.272570704492791e-07	5.316450610313712e-09	-1.960546187435511e-07
